<svg xmlns="http://www.w3.org/2000/svg" viewBox="0 0 200 200" width="256" height="256">
  <rect width="200" height="200" fill="#ffffff"/>
  <g fill="#0f172a">
    <!-- Three positional squares -->
    <rect x="10" y="10" width="50" height="50"/>
    <rect x="20" y="20" width="30" height="30" fill="#ffffff"/>
    <rect x="28" y="28" width="14" height="14"/>

    <rect x="140" y="10" width="50" height="50"/>
    <rect x="150" y="20" width="30" height="30" fill="#ffffff"/>
    <rect x="158" y="28" width="14" height="14"/>

    <rect x="10" y="140" width="50" height="50"/>
    <rect x="20" y="150" width="30" height="30" fill="#ffffff"/>
    <rect x="28" y="158" width="14" height="14"/>

    <!-- Random data dots -->
    <rect x="70"  y="15"  width="8" height="8"/>
    <rect x="85"  y="15"  width="8" height="8"/>
    <rect x="100" y="25"  width="8" height="8"/>
    <rect x="115" y="15"  width="8" height="8"/>
    <rect x="125" y="40"  width="8" height="8"/>
    <rect x="70"  y="40"  width="8" height="8"/>
    <rect x="95"  y="50"  width="8" height="8"/>
    <rect x="115" y="55"  width="8" height="8"/>

    <rect x="15"  y="75"  width="8" height="8"/>
    <rect x="30"  y="75"  width="8" height="8"/>
    <rect x="50"  y="85"  width="8" height="8"/>
    <rect x="70"  y="75"  width="8" height="8"/>
    <rect x="85"  y="90"  width="8" height="8"/>
    <rect x="100" y="80"  width="8" height="8"/>
    <rect x="115" y="95"  width="8" height="8"/>
    <rect x="135" y="80"  width="8" height="8"/>
    <rect x="155" y="90"  width="8" height="8"/>
    <rect x="175" y="80"  width="8" height="8"/>

    <rect x="20"  y="110" width="8" height="8"/>
    <rect x="40"  y="115" width="8" height="8"/>
    <rect x="60"  y="105" width="8" height="8"/>
    <rect x="80"  y="115" width="8" height="8"/>
    <rect x="100" y="110" width="8" height="8"/>
    <rect x="120" y="120" width="8" height="8"/>
    <rect x="140" y="110" width="8" height="8"/>
    <rect x="160" y="120" width="8" height="8"/>
    <rect x="180" y="105" width="8" height="8"/>

    <rect x="75"  y="145" width="8" height="8"/>
    <rect x="90"  y="155" width="8" height="8"/>
    <rect x="110" y="150" width="8" height="8"/>
    <rect x="130" y="160" width="8" height="8"/>
    <rect x="150" y="145" width="8" height="8"/>
    <rect x="170" y="155" width="8" height="8"/>
    <rect x="155" y="170" width="8" height="8"/>
    <rect x="135" y="180" width="8" height="8"/>
    <rect x="115" y="175" width="8" height="8"/>
    <rect x="95"  y="180" width="8" height="8"/>
    <rect x="75"  y="170" width="8" height="8"/>
  </g>
  <text x="100" y="198" text-anchor="middle" font-family="Inter, sans-serif" font-size="6" fill="#94a3b8">PLACEHOLDER QR — replace with real code</text>
</svg>
